<?xml version="1.0" encoding="UTF-8" standalone="no"?>
<!DOCTYPE svg PUBLIC "-//W3C//DTD SVG 1.1//EN"
 "http://www.w3.org/Graphics/SVG/1.1/DTD/svg11.dtd">
<!-- Generated by graphviz version 2.43.0 (0)
 -->
<!-- Title: G Pages: 1 -->
<svg width="883pt" height="345pt"
 viewBox="0.00 0.00 883.33 344.85" xmlns="http://www.w3.org/2000/svg" xmlns:xlink="http://www.w3.org/1999/xlink">
<g id="graph0" class="graph" transform="scale(1 1) rotate(0) translate(4 340.85)">
<title>G</title><style>.edge>path:hover{stroke-width:8}</style>
<polygon fill="white" stroke="transparent" points="-4,4 -4,-340.85 879.33,-340.85 879.33,4 -4,4"/>
<!-- beautyspot -->
<g id="node1" class="node">
<title>beautyspot</title><style>.edge>path:hover{stroke-width:8}</style>
<polygon fill="blue" stroke="black" points="336.53,-36 265.53,-36 265.53,0 336.53,0 336.53,-36"/>
<text text-anchor="middle" x="301.03" y="-15.5" font-family="Helvetica,sans-Serif" font-size="10.00" fill="white">beautyspot</text>
</g>
<!-- beautyspot_cachekey -->
<g id="node2" class="node">
<title>beautyspot_cachekey</title><style>.edge>path:hover{stroke-width:8}</style>
<ellipse fill="#cc3333" stroke="black" cx="53.03" cy="-171.64" rx="53.07" ry="21.43"/>
<text text-anchor="middle" x="53.03" y="-174.64" font-family="Helvetica,sans-Serif" font-size="10.00" fill="#ffffff">beautyspot.</text>
<text text-anchor="middle" x="53.03" y="-163.64" font-family="Helvetica,sans-Serif" font-size="10.00" fill="#ffffff">cachekey</text>
</g>
<!-- beautyspot_cachekey&#45;&gt;beautyspot -->
<g id="edge1" class="edge">
<title>beautyspot_cachekey&#45;&gt;beautyspot</title><style>.edge>path:hover{stroke-width:8}</style>
<path fill="none" stroke="black" d="M85.38,-154.68C111.67,-140.81 148.89,-119.07 177.03,-94.21"/>
<path fill="none" stroke="black" d="M177.03,-92.21C200.71,-71.3 231.22,-53.19 256.05,-40.22"/>
<polygon fill="#cc3333" stroke="black" points="257.96,-43.18 265.27,-35.5 254.77,-36.95 257.96,-43.18"/>
</g>
<!-- beautyspot_core -->
<g id="node4" class="node">
<title>beautyspot_core</title><style>.edge>path:hover{stroke-width:8}</style>
<polygon fill="blue" stroke="black" points="338.53,-111.21 263.53,-111.21 263.53,-75.21 338.53,-75.21 338.53,-111.21"/>
<text text-anchor="middle" x="301.03" y="-96.21" font-family="Helvetica,sans-Serif" font-size="10.00" fill="white">beautyspot.</text>
<text text-anchor="middle" x="301.03" y="-85.21" font-family="Helvetica,sans-Serif" font-size="10.00" fill="white">core</text>
</g>
<!-- beautyspot_cachekey&#45;&gt;beautyspot_core -->
<g id="edge2" class="edge">
<title>beautyspot_cachekey&#45;&gt;beautyspot_core</title><style>.edge>path:hover{stroke-width:8}</style>
<path fill="none" stroke="black" d="M93.01,-157.46C100.33,-155.09 107.9,-152.67 115.03,-150.43 162.01,-135.67 215.88,-119.47 253.51,-108.27"/>
<polygon fill="#cc3333" stroke="black" points="254.61,-111.59 263.2,-105.39 252.62,-104.88 254.61,-111.59"/>
</g>
<!-- beautyspot_cli -->
<g id="node3" class="node">
<title>beautyspot_cli</title><style>.edge>path:hover{stroke-width:8}</style>
<ellipse fill="#6b2e2e" stroke="black" cx="771.03" cy="-93.21" rx="50.75" ry="18"/>
<text text-anchor="middle" x="771.03" y="-90.71" font-family="Helvetica,sans-Serif" font-size="10.00" fill="#ffffff">beautyspot.cli</text>
</g>
<!-- beautyspot_core&#45;&gt;beautyspot -->
<g id="edge3" class="edge">
<title>beautyspot_core&#45;&gt;beautyspot</title><style>.edge>path:hover{stroke-width:8}</style>
<path fill="none" stroke="black" d="M301.03,-74.86C301.03,-66.38 301.03,-55.98 301.03,-46.45"/>
<polygon fill="blue" stroke="black" points="304.53,-46.23 301.03,-36.23 297.53,-46.23 304.53,-46.23"/>
</g>
<!-- beautyspot_dashboard -->
<g id="node5" class="node">
<title>beautyspot_dashboard</title><style>.edge>path:hover{stroke-width:8}</style>
<ellipse fill="#793434" stroke="black" cx="589.03" cy="-93.21" rx="53.07" ry="21.43"/>
<text text-anchor="middle" x="589.03" y="-96.21" font-family="Helvetica,sans-Serif" font-size="10.00" fill="#ffffff">beautyspot.</text>
<text text-anchor="middle" x="589.03" y="-85.21" font-family="Helvetica,sans-Serif" font-size="10.00" fill="#ffffff">dashboard</text>
</g>
<!-- beautyspot_db -->
<g id="node6" class="node">
<title>beautyspot_db</title><style>.edge>path:hover{stroke-width:8}</style>
<ellipse fill="#d92626" stroke="black" cx="709.03" cy="-171.64" rx="51.43" ry="18"/>
<text text-anchor="middle" x="709.03" y="-169.14" font-family="Helvetica,sans-Serif" font-size="10.00" fill="#ffffff">beautyspot.db</text>
</g>
<!-- beautyspot_db&#45;&gt;beautyspot_cli -->
<g id="edge4" class="edge">
<title>beautyspot_db&#45;&gt;beautyspot_cli</title><style>.edge>path:hover{stroke-width:8}</style>
<path fill="none" stroke="black" d="M722.49,-154.06C730.85,-143.74 741.77,-130.29 751.12,-118.75"/>
<polygon fill="#d92626" stroke="black" points="754.02,-120.74 757.61,-110.76 748.59,-116.33 754.02,-120.74"/>
</g>
<!-- beautyspot_db&#45;&gt;beautyspot_core -->
<g id="edge5" class="edge">
<title>beautyspot_db&#45;&gt;beautyspot_core</title><style>.edge>path:hover{stroke-width:8}</style>
<path fill="none" stroke="black" d="M666.14,-161.56C649.02,-158 629.11,-153.93 611.03,-150.43 518.39,-132.48 409.83,-113.19 348.87,-102.52"/>
<polygon fill="#d92626" stroke="black" points="349.24,-99.03 338.79,-100.76 348.03,-105.93 349.24,-99.03"/>
</g>
<!-- beautyspot_db&#45;&gt;beautyspot_dashboard -->
<g id="edge6" class="edge">
<title>beautyspot_db&#45;&gt;beautyspot_dashboard</title><style>.edge>path:hover{stroke-width:8}</style>
<path fill="none" stroke="black" d="M685.32,-155.54C668.15,-144.6 644.61,-129.61 625.11,-117.19"/>
<polygon fill="#d92626" stroke="black" points="626.79,-114.11 616.47,-111.69 623.03,-120.01 626.79,-114.11"/>
</g>
<!-- beautyspot_limiter -->
<g id="node7" class="node">
<title>beautyspot_limiter</title><style>.edge>path:hover{stroke-width:8}</style>
<ellipse fill="#c24747" stroke="black" cx="301.03" cy="-171.64" rx="53.07" ry="21.43"/>
<text text-anchor="middle" x="301.03" y="-174.64" font-family="Helvetica,sans-Serif" font-size="10.00" fill="#ffffff">beautyspot.</text>
<text text-anchor="middle" x="301.03" y="-163.64" font-family="Helvetica,sans-Serif" font-size="10.00" fill="#ffffff">limiter</text>
</g>
<!-- beautyspot_limiter&#45;&gt;beautyspot_core -->
<g id="edge7" class="edge">
<title>beautyspot_limiter&#45;&gt;beautyspot_core</title><style>.edge>path:hover{stroke-width:8}</style>
<path fill="none" stroke="black" d="M301.03,-150.16C301.03,-141.42 301.03,-131.09 301.03,-121.7"/>
<polygon fill="#c24747" stroke="black" points="304.53,-121.64 301.03,-111.64 297.53,-121.64 304.53,-121.64"/>
</g>
<!-- beautyspot_serializer -->
<g id="node8" class="node">
<title>beautyspot_serializer</title><style>.edge>path:hover{stroke-width:8}</style>
<ellipse fill="#cc3333" stroke="black" cx="177.03" cy="-171.64" rx="53.07" ry="21.43"/>
<text text-anchor="middle" x="177.03" y="-174.64" font-family="Helvetica,sans-Serif" font-size="10.00" fill="#ffffff">beautyspot.</text>
<text text-anchor="middle" x="177.03" y="-163.64" font-family="Helvetica,sans-Serif" font-size="10.00" fill="#ffffff">serializer</text>
</g>
<!-- beautyspot_serializer&#45;&gt;beautyspot -->
<g id="edge8" class="edge">
<title>beautyspot_serializer&#45;&gt;beautyspot</title><style>.edge>path:hover{stroke-width:8}</style>
<path fill="none" stroke="black" d="M169.74,-150.35C164.83,-132.65 161.72,-107.74 177.03,-94.21"/>
</g>
<!-- beautyspot_serializer&#45;&gt;beautyspot_core -->
<g id="edge9" class="edge">
<title>beautyspot_serializer&#45;&gt;beautyspot_core</title><style>.edge>path:hover{stroke-width:8}</style>
<path fill="none" stroke="black" d="M204.86,-153.49C222.49,-142.62 245.48,-128.45 264.56,-116.69"/>
<polygon fill="#cc3333" stroke="black" points="266.62,-119.53 273.3,-111.31 262.95,-113.57 266.62,-119.53"/>
</g>
<!-- beautyspot_storage -->
<g id="node9" class="node">
<title>beautyspot_storage</title><style>.edge>path:hover{stroke-width:8}</style>
<ellipse fill="#c82323" stroke="black" cx="425.03" cy="-171.64" rx="53.07" ry="21.43"/>
<text text-anchor="middle" x="425.03" y="-174.64" font-family="Helvetica,sans-Serif" font-size="10.00" fill="#ffffff">beautyspot.</text>
<text text-anchor="middle" x="425.03" y="-163.64" font-family="Helvetica,sans-Serif" font-size="10.00" fill="#ffffff">storage</text>
</g>
<!-- beautyspot_storage&#45;&gt;beautyspot -->
<g id="edge10" class="edge">
<title>beautyspot_storage&#45;&gt;beautyspot</title><style>.edge>path:hover{stroke-width:8}</style>
<path fill="none" stroke="black" d="M439.53,-151.03C450.39,-133.79 461.04,-109.17 446.03,-94.21"/>
<path fill="none" stroke="black" d="M446.03,-92.21C418.19,-64.46 377.67,-45.22 346.54,-33.45"/>
<polygon fill="#c82323" stroke="black" points="347.38,-30.04 336.79,-29.89 344.98,-36.61 347.38,-30.04"/>
</g>
<!-- beautyspot_storage&#45;&gt;beautyspot_core -->
<g id="edge11" class="edge">
<title>beautyspot_storage&#45;&gt;beautyspot_core</title><style>.edge>path:hover{stroke-width:8}</style>
<path fill="none" stroke="black" d="M397.2,-153.49C379.58,-142.62 356.58,-128.45 337.5,-116.69"/>
<polygon fill="#c82323" stroke="black" points="339.12,-113.57 328.77,-111.31 335.44,-119.53 339.12,-113.57"/>
</g>
<!-- beautyspot_storage&#45;&gt;beautyspot_dashboard -->
<g id="edge12" class="edge">
<title>beautyspot_storage&#45;&gt;beautyspot_dashboard</title><style>.edge>path:hover{stroke-width:8}</style>
<path fill="none" stroke="black" d="M458.62,-154.99C483.93,-143.19 518.84,-126.92 546.17,-114.19"/>
<polygon fill="#c82323" stroke="black" points="547.91,-117.24 555.49,-109.84 544.95,-110.89 547.91,-117.24"/>
</g>
<!-- beautyspot_types -->
<g id="node10" class="node">
<title>beautyspot_types</title><style>.edge>path:hover{stroke-width:8}</style>
<ellipse fill="#ce3b3b" stroke="black" cx="549.03" cy="-171.64" rx="53.07" ry="21.43"/>
<text text-anchor="middle" x="549.03" y="-174.64" font-family="Helvetica,sans-Serif" font-size="10.00" fill="#ffffff">beautyspot.</text>
<text text-anchor="middle" x="549.03" y="-163.64" font-family="Helvetica,sans-Serif" font-size="10.00" fill="#ffffff">types</text>
</g>
<!-- beautyspot_types&#45;&gt;beautyspot -->
<g id="edge13" class="edge">
<title>beautyspot_types&#45;&gt;beautyspot</title><style>.edge>path:hover{stroke-width:8}</style>
<path fill="none" stroke="black" d="M521.52,-153.44C499.74,-139.09 469.22,-117.32 446.03,-94.21"/>
</g>
<!-- beautyspot_types&#45;&gt;beautyspot_dashboard -->
<g id="edge14" class="edge">
<title>beautyspot_types&#45;&gt;beautyspot_dashboard</title><style>.edge>path:hover{stroke-width:8}</style>
<path fill="none" stroke="black" d="M559.54,-150.56C563.91,-142.22 569.05,-132.39 573.82,-123.28"/>
<polygon fill="#ce3b3b" stroke="black" points="577.06,-124.64 578.59,-114.16 570.86,-121.4 577.06,-124.64"/>
</g>
<!-- boto3 -->
<g id="node11" class="node">
<title>boto3</title><style>.edge>path:hover{stroke-width:8}</style>
<polygon fill="#c0a040" stroke="black" points="362.03,-336.85 359.03,-340.85 338.03,-340.85 335.03,-336.85 308.03,-336.85 308.03,-300.85 362.03,-300.85 362.03,-336.85"/>
<text text-anchor="middle" x="335.03" y="-316.35" font-family="Helvetica,sans-Serif" font-size="10.00" fill="#000000">boto3</text>
</g>
<!-- boto3&#45;&gt;beautyspot_storage -->
<g id="edge15" class="edge">
<title>boto3&#45;&gt;beautyspot_storage</title><style>.edge>path:hover{stroke-width:8}</style>
<path fill="none" stroke="black" d="M362.17,-302.25C380.1,-290.1 401.75,-271.37 410.03,-247.85"/>
<path fill="none" stroke="black" d="M410.03,-245.85C414.86,-232.14 418.34,-216.41 420.72,-203.05"/>
<polygon fill="#c0a040" stroke="black" points="424.21,-203.36 422.4,-192.93 417.31,-202.22 424.21,-203.36"/>
</g>
<!-- botocore -->
<g id="node12" class="node">
<title>botocore</title><style>.edge>path:hover{stroke-width:8}</style>
<polygon fill="#85c247" stroke="black" points="440.03,-336.85 437.03,-340.85 416.03,-340.85 413.03,-336.85 380.03,-336.85 380.03,-300.85 440.03,-300.85 440.03,-336.85"/>
<text text-anchor="middle" x="410.03" y="-316.35" font-family="Helvetica,sans-Serif" font-size="10.00" fill="#000000">botocore</text>
</g>
<!-- botocore&#45;&gt;beautyspot_storage -->
<g id="edge16" class="edge">
<title>botocore&#45;&gt;beautyspot_storage</title><style>.edge>path:hover{stroke-width:8}</style>
<path fill="none" stroke="black" d="M406.92,-300.63C405.02,-286.12 403.98,-265.05 410.03,-247.85"/>
</g>
<!-- msgpack -->
<g id="node13" class="node">
<title>msgpack</title><style>.edge>path:hover{stroke-width:8}</style>
<polygon fill="#2fdb5a" stroke="black" points="519.53,-336.85 516.53,-340.85 495.53,-340.85 492.53,-336.85 458.53,-336.85 458.53,-300.85 519.53,-300.85 519.53,-336.85"/>
<text text-anchor="middle" x="489.03" y="-316.35" font-family="Helvetica,sans-Serif" font-size="10.00" fill="#000000">msgpack</text>
</g>
<!-- msgpack&#45;&gt;beautyspot_cachekey -->
<g id="edge17" class="edge">
<title>msgpack&#45;&gt;beautyspot_cachekey</title><style>.edge>path:hover{stroke-width:8}</style>
<path fill="none" stroke="black" d="M458.13,-304.4C455.07,-303.16 452,-301.96 449.03,-300.85 302.87,-246.29 263.42,-241.03 115.03,-192.85 111.04,-191.55 106.89,-190.21 102.73,-188.85"/>
<polygon fill="#2fdb5a" stroke="black" points="103.64,-185.47 93.05,-185.7 101.48,-192.13 103.64,-185.47"/>
</g>
<!-- msgpack&#45;&gt;beautyspot_cli -->
<g id="edge18" class="edge">
<title>msgpack&#45;&gt;beautyspot_cli</title><style>.edge>path:hover{stroke-width:8}</style>
<path fill="none" stroke="black" d="M519.92,-304.37C522.98,-303.14 526.06,-301.95 529.03,-300.85 579.29,-282.36 594.79,-285.9 644.03,-264.85 663.52,-256.52 812.32,-193.8 811.03,-172.64"/>
<path fill="none" stroke="black" d="M811.03,-170.64C809.5,-151.85 799.8,-133.06 790.34,-118.81"/>
<polygon fill="#2fdb5a" stroke="black" points="793.17,-116.75 784.56,-110.57 787.44,-120.77 793.17,-116.75"/>
</g>
<!-- msgpack&#45;&gt;beautyspot_dashboard -->
<g id="edge19" class="edge">
<title>msgpack&#45;&gt;beautyspot_dashboard</title><style>.edge>path:hover{stroke-width:8}</style>
<path fill="none" stroke="black" d="M592.03,-245.85C587.82,-209.43 634.32,-209.05 630.03,-172.64"/>
<path fill="none" stroke="black" d="M630.03,-170.64C627.98,-153.22 619.31,-135.83 610.47,-122.05"/>
<polygon fill="#2fdb5a" stroke="black" points="613.21,-119.86 604.7,-113.55 607.42,-123.79 613.21,-119.86"/>
</g>
<!-- msgpack&#45;&gt;beautyspot_serializer -->
<g id="edge20" class="edge">
<title>msgpack&#45;&gt;beautyspot_serializer</title><style>.edge>path:hover{stroke-width:8}</style>
<path fill="none" stroke="black" d="M519.6,-304.32C550.7,-289.53 594.08,-265.57 592.03,-247.85"/>
<path fill="none" stroke="black" d="M592.03,-245.85C582.91,-167.06 316.23,-211.1 239.03,-192.85 234.64,-191.81 230.11,-190.61 225.59,-189.31"/>
<polygon fill="#2fdb5a" stroke="black" points="226.36,-185.89 215.78,-186.36 224.35,-192.59 226.36,-185.89"/>
</g>
<!-- pandas -->
<g id="node14" class="node">
<title>pandas</title><style>.edge>path:hover{stroke-width:8}</style>
<polygon fill="#26d9d9" stroke="black" points="672.03,-336.85 669.03,-340.85 648.03,-340.85 645.03,-336.85 618.03,-336.85 618.03,-300.85 672.03,-300.85 672.03,-336.85"/>
<text text-anchor="middle" x="645.03" y="-316.35" font-family="Helvetica,sans-Serif" font-size="10.00" fill="#000000">pandas</text>
</g>
<!-- pandas&#45;&gt;beautyspot_cli -->
<g id="edge21" class="edge">
<title>pandas&#45;&gt;beautyspot_cli</title><style>.edge>path:hover{stroke-width:8}</style>
<path fill="none" stroke="black" d="M672.18,-315.55C726.34,-310.32 844.74,-295.57 869.03,-264.85 878.96,-252.3 875.27,-243.59 869.03,-228.85 855.04,-195.8 814.06,-208.41 811.03,-172.64"/>
</g>
<!-- pandas&#45;&gt;beautyspot_dashboard -->
<g id="edge22" class="edge">
<title>pandas&#45;&gt;beautyspot_dashboard</title><style>.edge>path:hover{stroke-width:8}</style>
<path fill="none" stroke="black" d="M637.76,-300.69C632.66,-286.58 627.2,-266.03 630.03,-247.85"/>
</g>
<!-- pandas&#45;&gt;beautyspot_db -->
<g id="edge23" class="edge">
<title>pandas&#45;&gt;beautyspot_db</title><style>.edge>path:hover{stroke-width:8}</style>
<path fill="none" stroke="black" d="M652.63,-300.62C663.69,-275.52 684.35,-228.65 697.36,-199.13"/>
<polygon fill="#26d9d9" stroke="black" points="700.62,-200.41 701.45,-189.85 694.21,-197.58 700.62,-200.41"/>
</g>
<!-- rich -->
<g id="node15" class="node">
<title>rich</title><style>.edge>path:hover{stroke-width:8}</style>
<polygon fill="blue" stroke="black" points="788.03,-264.85 785.03,-268.85 764.03,-268.85 761.03,-264.85 734.03,-264.85 734.03,-228.85 788.03,-228.85 788.03,-264.85"/>
<text text-anchor="middle" x="761.03" y="-244.35" font-family="Helvetica,sans-Serif" font-size="10.00" fill="white">rich</text>
</g>
<!-- rich&#45;&gt;beautyspot_cli -->
<g id="edge24" class="edge">
<title>rich&#45;&gt;beautyspot_cli</title><style>.edge>path:hover{stroke-width:8}</style>
<path fill="none" stroke="black" d="M782.44,-228.76C796.85,-215.13 812.9,-194.73 811.03,-172.64"/>
</g>
<!-- streamlit -->
<g id="node16" class="node">
<title>streamlit</title><style>.edge>path:hover{stroke-width:8}</style>
<polygon fill="blue" stroke="black" points="600.03,-336.85 597.03,-340.85 576.03,-340.85 573.03,-336.85 538.03,-336.85 538.03,-300.85 600.03,-300.85 600.03,-336.85"/>
<text text-anchor="middle" x="569.03" y="-316.35" font-family="Helvetica,sans-Serif" font-size="10.00" fill="white">streamlit</text>
</g>
<!-- streamlit&#45;&gt;beautyspot_dashboard -->
<g id="edge25" class="edge">
<title>streamlit&#45;&gt;beautyspot_dashboard</title><style>.edge>path:hover{stroke-width:8}</style>
<path fill="none" stroke="black" d="M594.12,-300.68C609.4,-288.19 626.63,-269.67 630.03,-247.85"/>
<path fill="none" stroke="black" d="M630.03,-245.85C635.04,-213.7 633.84,-204.96 630.03,-172.64"/>
</g>
<!-- typer -->
<g id="node17" class="node">
<title>typer</title><style>.edge>path:hover{stroke-width:8}</style>
<polygon fill="#c0409f" stroke="black" points="860.03,-264.85 857.03,-268.85 836.03,-268.85 833.03,-264.85 806.03,-264.85 806.03,-228.85 860.03,-228.85 860.03,-264.85"/>
<text text-anchor="middle" x="833.03" y="-244.35" font-family="Helvetica,sans-Serif" font-size="10.00" fill="#ffffff">typer</text>
</g>
<!-- typer&#45;&gt;beautyspot_cli -->
<g id="edge26" class="edge">
<title>typer&#45;&gt;beautyspot_cli</title><style>.edge>path:hover{stroke-width:8}</style>
<path fill="none" stroke="black" d="M825.7,-228.79C819.98,-214.2 812.71,-192.48 811.03,-172.64"/>
</g>
</g>
</svg>
